<svg xmlns="http://www.w3.org/2000/svg" viewBox="0 0 32 32" fill="none">
  <rect width="32" height="32" rx="8" fill="#1e40af"/>
  <rect x="8" y="8" width="16" height="16" rx="2" stroke="#93c5fd" stroke-width="2" fill="none"/>
  <rect x="12" y="12" width="8" height="8" rx="1" fill="#60a5fa"/>
  <line x1="6" y1="13" x2="9" y2="13" stroke="#93c5fd" stroke-width="1.5"/>
  <line x1="6" y1="16" x2="9" y2="16" stroke="#93c5fd" stroke-width="1.5"/>
  <line x1="6" y1="19" x2="9" y2="19" stroke="#93c5fd" stroke-width="1.5"/>
  <line x1="23" y1="13" x2="26" y2="13" stroke="#93c5fd" stroke-width="1.5"/>
  <line x1="23" y1="16" x2="26" y2="16" stroke="#93c5fd" stroke-width="1.5"/>
  <line x1="23" y1="19" x2="26" y2="19" stroke="#93c5fd" stroke-width="1.5"/>
  <line x1="13" y1="6" x2="13" y2="9" stroke="#93c5fd" stroke-width="1.5"/>
  <line x1="16" y1="6" x2="16" y2="9" stroke="#93c5fd" stroke-width="1.5"/>
  <line x1="19" y1="6" x2="19" y2="9" stroke="#93c5fd" stroke-width="1.5"/>
  <line x1="13" y1="23" x2="13" y2="26" stroke="#93c5fd" stroke-width="1.5"/>
  <line x1="16" y1="23" x2="16" y2="26" stroke="#93c5fd" stroke-width="1.5"/>
  <line x1="19" y1="23" x2="19" y2="26" stroke="#93c5fd" stroke-width="1.5"/>
</svg>
